<svg width="800" height="800" viewBox="0 0 800 800" fill="none" xmlns="http://www.w3.org/2000/svg">
        <g clip-path="url(#clip0_1_2)">
        <path d="M108.149 202.575C129.062 187.958 160.588 190.761 179.365 206.268L157.829 174.964C140.497 150.246 146.705 123.503 171.445 106.149C196.185 88.8617 266.289 135.339 266.289 135.339C248.802 110.376 252.072 78.7383 277.035 61.2287C301.997 43.7853 336.437 49.815 353.923 74.8227L585.75 402.323L556.203 688.777L309.628 598.847L94.555 279.956C76.912 254.837 83.008 220.196 108.149 202.575Z" fill="#EF9645"/>
        <path d="M59.959 384.77C59.959 384.77 34.774 348.06 71.5057 322.896C108.193 297.733 133.356 334.42 133.356 334.42L250.181 504.803C254.208 498.083 258.613 491.453 263.53 484.913L101.385 248.474C101.385 248.474 76.2223 211.786 112.932 186.623C149.619 161.459 174.782 198.147 174.782 198.147L327.293 420.57C332.966 415.94 338.773 411.29 344.757 406.73L167.951 148.844C167.951 148.844 142.789 112.156 179.498 86.9927C216.186 61.8293 241.348 98.5173 241.348 98.5173L418.153 356.36C424.65 352.377 431.08 348.927 437.533 345.28L272.273 104.28C272.273 104.28 247.11 67.5917 283.798 42.4283C320.485 17.2649 345.647 53.953 345.647 53.953L520.383 308.791L546.95 347.547C436.867 423.06 426.387 565.12 489.283 656.85C501.853 675.207 520.207 662.637 520.207 662.637C444.72 552.527 467.767 428.8 577.873 353.31L545.413 190.85C545.413 190.85 533.29 148.043 576.073 135.895C618.877 123.77 631.023 166.576 631.023 166.576L668.513 277.909C683.373 322.051 699.193 366.037 720.13 407.643C779.243 525.117 743.933 671.113 632.47 747.58C510.883 830.947 344.67 799.953 261.283 678.387L59.959 384.77Z" fill="#FFDC5D"/>
        <path d="M266.978 711.723C177.985 711.723 88.0583 621.9 88.0583 533.01C88.0583 520.72 79.0477 510.787 66.7443 510.787C54.4413 510.787 43.5617 520.72 43.5617 533.01C43.5617 666.343 133.489 756.167 266.978 756.167C279.281 756.167 289.226 745.3 289.226 733.013C289.226 720.723 279.281 711.723 266.978 711.723Z" fill="#737380"/>
        <path d="M155.737 755.503C88.9927 755.503 44.4963 711.003 44.4963 644.26C44.4963 631.957 34.5513 622.01 22.2482 622.01C9.94493 622.01 0 631.957 0 644.26C0 733.253 66.7447 800 155.737 800C168.041 800 177.985 790.053 177.985 777.75C177.985 765.447 168.041 755.503 155.737 755.503ZM533.957 43.5423C521.677 43.5423 511.707 53.51 511.707 65.7913C511.707 78.0727 521.677 88.04 533.957 88.04C622.95 88.04 711.943 167.891 711.943 266.03C711.943 278.311 721.91 288.279 734.19 288.279C746.47 288.279 756.437 278.311 756.437 266.03C756.437 143.35 667.447 43.5423 533.957 43.5423Z" fill="#737380"/>
        <path d="M645.197 0C632.917 0 622.95 9.02247 622.95 21.2895C622.95 33.5563 632.917 44.4457 645.197 44.4457C711.943 44.4457 755.503 93.8913 755.503 154.626C755.503 166.893 766.383 176.849 778.687 176.849C790.99 176.849 800 166.893 800 154.626C800 69.3573 734.19 0 645.197 0Z" fill="#737380"/>
        </g>
        <defs>
        <clipPath id="clip0_1_2">
        <rect width="800" height="800" fill="white"/>
        </clipPath>
        </defs>
        </svg>